# xmcd CD database file
#
# Track frame offsets:
#	150
#	9858
#	24405
#	48079
#	63401
#	81835
#	96512
#	110009
#	122376
#	143169
#	173804
#	189204
#	211609
#	236503
#	261367
#
# Disc length: 3770 seconds
#
# Revision: 0
# Processed by: cddbd v1.5.1PL2 Copyright (c) Steve Scherf et al.
# Submitted via: CDex 1.51
#
DISCID=bb0eb80f
DTITLE=elabor - tollerort terminal
DYEAR=2005
DGENRE=Rhythmic Soul
TTITLE0=einzigkeit
TTITLE1=winter
TTITLE2=hannas lächeln
TTITLE3=du
TTITLE4=in deinem kopf
TTITLE5=gerade die
TTITLE6=soular plexus
TTITLE7=darmstadt blues
TTITLE8=durch
TTITLE9=eisbrecher
TTITLE10=ohne alles
TTITLE11=sommerlicht
TTITLE12=schritt zurück
TTITLE13=nichts
TTITLE14=vorfrühling
EXTD=YEAR: 2005
EXTT0=
EXTT1=
EXTT2=
EXTT3=
EXTT4=
EXTT5=
EXTT6=
EXTT7=
EXTT8=
EXTT9=
EXTT10=
EXTT11=
EXTT12=
EXTT13=
EXTT14=
PLAYORDER=
